<?xml version="1.0" encoding="UTF-8" standalone="no"?>
<svg
   version="1.2"
   viewBox="0 0 329.82468 335.46155"
   width="329.82468"
   height="335.46155"
   id="svg1"
   sodipodi:docname="ChatGPT Image 24 jun 2025, 10_49_27 (2).svg"
   inkscape:version="1.3.2 (091e20e, 2023-11-25, custom)"
   xmlns:inkscape="http://www.inkscape.org/namespaces/inkscape"
   xmlns:sodipodi="http://sodipodi.sourceforge.net/DTD/sodipodi-0.dtd"
   xmlns="http://www.w3.org/2000/svg"
   xmlns:svg="http://www.w3.org/2000/svg"
   xmlns:rdf="http://www.w3.org/1999/02/22-rdf-syntax-ns#"
   xmlns:cc="http://creativecommons.org/ns#"
   xmlns:dc="http://purl.org/dc/elements/1.1/">
  <defs
     id="defs1" />
  <sodipodi:namedview
     id="namedview1"
     pagecolor="#ffffff"
     bordercolor="#000000"
     borderopacity="0.25"
     inkscape:showpageshadow="2"
     inkscape:pageopacity="0.0"
     inkscape:pagecheckerboard="0"
     inkscape:deskcolor="#d1d1d1"
     showgrid="false"
     inkscape:zoom="1.1455078"
     inkscape:cx="427.3214"
     inkscape:cy="179.39642"
     inkscape:window-width="2560"
     inkscape:window-height="1369"
     inkscape:window-x="1912"
     inkscape:window-y="-8"
     inkscape:window-maximized="1"
     inkscape:current-layer="svg1" />
  <title
     id="title1">ChatGPT Image 24 jun 2025, 10_49_27</title>
  <style
     id="style1">
		.s0 { opacity: 1;fill: #d42e8d } 
		.s1 { opacity: 1;fill: #401f70 } 
	</style>
  <g
     id="Background"
     transform="translate(-85.091796,-332.30256)">
    <path
       id="Path 0"
       fill-rule="evenodd"
       class="s0"
       d="m 294,332.4 c 7.5,0.2 12.4,1 17,2.5 3.6,1.2 9.4,3.9 13,6 3.6,2.1 9.4,6.7 13,10.3 3.6,3.6 8,8.9 9.7,11.9 1.8,3 4.2,8.1 5.3,11.4 2.1,6 2.1,6 9.8,9.6 4.2,2 10.2,5.9 13.2,8.6 3,2.7 7.3,7.6 9.4,10.9 2.2,3.2 4.8,8.3 5.8,11.2 1,2.8 2.3,8.5 2.9,12.5 0.7,4.8 0.7,9.5 -0.8,21.2 l 5.9,6.5 c 3.3,3.6 7.5,9.7 9.4,13.5 1.9,3.9 4.4,10.8 5.5,15.5 1.8,6.9 2.1,10.3 1.6,18 -0.3,5.4 -1.5,12.6 -2.7,16.5 -1.2,3.9 -3.5,9.5 -5.2,12.5 -1.7,3 -4.4,7.1 -6,9 -2.8,3.5 -2.8,3.6 -2.2,13.5 0.5,7.7 0.3,11.8 -1.1,18 -0.9,4.4 -3.4,11.3 -5.4,15.4 -2,4.1 -6.2,10.2 -9.6,13.9 -3.3,3.6 -8.7,8.3 -12,10.4 -3.3,2.2 -8.1,4.7 -10.8,5.6 -2.7,1 -4.7,2.3 -4.7,3.2 0,0.8 -1.2,4.6 -2.5,8.5 -1.4,3.9 -4.5,10 -7,13.8 -2.5,3.7 -7.1,8.9 -10.2,11.5 -3.2,2.6 -8.7,6.2 -12.3,8 -3.6,1.8 -10.1,4 -14.5,4.8 -6.7,1.4 -9.1,1.5 -15,0.5 -3.9,-0.7 -9.2,-2.3 -12,-3.6 -2.7,-1.3 -7.2,-4.3 -10,-6.8 -2.9,-2.5 -6.3,-6.9 -11,-16.2 l -0.5,-107 33.5,-33.4 18.5,-0.3 c 15.7,-0.3 19.1,-0.7 22.7,-2.3 2.5,-1.2 8.9,-6.6 15.3,-13 7.6,-7.6 11.1,-11.7 11,-13.2 0,-1.3 -0.9,-3.2 -2,-4.3 -1.1,-1.1 -3.2,-2 -4.7,-2 -2.2,0.1 -5.1,2.3 -12.8,9.9 -5.5,5.4 -11,10.4 -12.2,11 -1.4,0.6 -7.7,1.1 -15.3,1.1 -10.7,0 -13.1,-0.3 -13.5,-1.5 -0.3,-0.8 -0.5,-7.4 -0.5,-27.5 l 4.7,-5.2 c 2.6,-2.9 8.2,-8.9 12.4,-13.3 4.2,-4.4 8.4,-9.5 9.3,-11.2 1.3,-2.6 1.6,-6.3 1.6,-17.8 0,-13.2 -0.2,-14.7 -2,-16.5 -1.1,-1.1 -3,-2 -4.2,-2 -1.3,0 -3.3,0.9 -4.5,2 -2.2,1.9 -2.3,2.8 -2.3,28.5 l -11.1,12 c -6.1,6.6 -12.2,13.5 -13.7,15.4 -2.7,3.4 -2.7,3.6 -3.2,39.1 l -9.3,8.8 c -5,4.9 -11.1,10.5 -17.7,16.2 v -85.7 c 0.1,-79.9 0.2,-85.9 1.8,-87.1 0.9,-0.7 3.8,-2.4 6.5,-3.7 2.6,-1.4 7.1,-3.2 9.9,-4 3.7,-1 8.5,-1.4 15.8,-1.1 z m 4.2,216.7 -10.1,10.4 c -0.1,18.2 0.4,24.7 1,26.3 0.5,1.5 5.8,7.5 11.7,13.5 8.8,8.8 11.2,10.7 13.7,10.7 1.6,0.1 3.8,-0.7 4.7,-1.7 1,-1 1.8,-3 1.8,-4.5 0,-2.2 -2.1,-4.8 -10,-12.5 l -10,-9.8 v -17 L 315.3,550 h 43.8 c 3.8,-3.9 4.9,-5.5 4.9,-6 0,-0.5 -0.5,-2 -1.1,-3.2 -0.7,-1.3 -1.7,-2.6 -2.3,-3 -0.6,-0.4 -11.7,-0.7 -24.6,-0.7 -12.9,0 -24.5,0.4 -25.6,0.8 -1.2,0.4 -6.7,5.5 -12.2,11.2 z m -73.9,0.9 c 0.4,0 4.5,3.8 9,8.5 4.5,4.7 8,8.5 7.7,8.5 -0.3,0 -4.3,-3.8 -9,-8.5 -4.7,-4.7 -8.1,-8.5 -7.7,-8.5 z" />
    <path
       id="Path 1"
       class="s1"
       d="m 198,333.5 c -3.6,0.8 -10.1,3.2 -14.5,5.4 -4.4,2.2 -10.5,6.2 -13.5,8.9 -3,2.6 -7.4,7.7 -9.8,11.3 -2.3,3.5 -5.1,9.1 -6.2,12.4 l -2,6 c -9.7,2.8 -15.4,5.3 -19,7.4 -3.6,2.1 -9.4,7 -13,10.7 -4.2,4.4 -7.9,9.6 -10.3,14.4 -2,4.1 -4.4,10.2 -5.2,13.5 -0.8,3.3 -1.5,9.8 -1.4,14.5 0.1,4.7 0.4,9.6 0.8,11 0.6,2.1 0,3.4 -3.7,7.5 -2.5,2.7 -6.2,8.6 -8.3,13 -2.2,4.4 -4.6,11.4 -5.5,15.5 -1.2,5.3 -1.5,10.4 -1.2,17.5 0.4,7.3 1.2,12 3.1,17.5 1.5,4.1 4.8,10.6 7.4,14.4 2.7,3.8 5.6,7.4 6.5,8 1.6,1 1.7,1.7 0.7,6.6 -0.7,3.2 -0.9,9.2 -0.6,14.5 0.4,5 0.9,10 1.2,11.2 0.3,1.3 1,2.1 1.5,1.8 0.5,-0.3 0.8,0.1 0.4,0.7 -0.3,0.7 0.6,3.8 1.9,6.8 1.3,3 4.6,8.4 7.3,11.9 2.7,3.5 7.8,8.6 11.4,11.2 3.6,2.7 9.2,6 12.5,7.3 6,2.4 6,2.4 7.5,8.3 0.9,3.2 3.1,8.7 5,12.3 2.1,3.9 6.5,9.5 11,14.1 5.7,5.7 9.5,8.5 16,11.8 4.8,2.4 9.3,4 10.3,3.7 0.9,-0.4 1.5,-0.2 1.2,0.4 -0.3,0.6 1.6,1.3 4.3,1.7 2.6,0.4 7.9,0.7 11.7,0.6 4.3,-0.1 9.3,-0.9 13,-2.2 3.3,-1.2 6.1,-2.6 6.3,-3.1 0.1,-0.6 0.8,-1 1.5,-1 0.6,0.1 3.4,-1.9 6.1,-4.2 3.1,-2.8 6,-6.7 8.2,-11.3 l 3.5,-7 -0.1,-50 -38.5,-38.5 c -10.5,10.5 -13.3,13.8 -13,14.2 0.3,0.5 0.2,0.6 -0.2,0.3 -0.5,-0.3 -6.8,5.4 -14.1,12.7 -11.8,11.8 -13.6,13.3 -16.5,13.2 -1.9,-0.1 -3.7,-0.9 -4.5,-2 -0.7,-1.1 -1.2,-3.3 -1.2,-4.9 0,-2.5 3,-6 19.5,-22.5 10.7,-10.7 19.5,-20 19.5,-20.5 0,-0.5 -2.7,-3.6 -6,-6.7 l -6,-5.8 c -18.3,-2.5 -22.9,-3.6 -24.7,-4.9 -1.6,-1.1 -7.1,-6.2 -12.3,-11.5 -5.2,-5.2 -9.9,-9.2 -10.5,-8.8 -0.6,0.4 -0.7,0.2 -0.2,-0.5 0.4,-0.8 0,-1.8 -0.8,-2.5 -0.9,-0.7 -1.6,-2.5 -1.5,-4 0,-1.6 0.9,-3.7 2,-4.8 1.1,-1.1 3.2,-2 4.8,-2 2.1,0.1 5.3,2.7 14.7,12 6.6,6.6 12.7,11.9 13.5,12 0.8,0 5.6,0.5 10.5,1.1 5.2,0.5 10.1,1.7 11.5,2.7 1.4,0.9 2.9,1.7 3.5,1.7 0.6,0.1 0.9,0.6 0.8,1.3 -0.2,0.7 10.8,12 24.5,25.1 l 24.7,24 0.6,-71.4 c -29.6,-29.4 -40,-39 -42.4,-40.3 -2.3,-1.2 -14.1,-5.7 -26.2,-9.9 -14.2,-5 -22.8,-8.5 -24.2,-10 -1.3,-1.3 -2.3,-3.3 -2.3,-4.5 -0.1,-1.3 0.6,-2.9 1.5,-3.5 0.8,-0.7 1.3,-1.6 1.1,-2 -0.2,-0.5 1,-0.8 2.7,-0.7 1.8,0 6.6,1.2 10.7,2.7 4.1,1.5 7.6,2.5 7.8,2.2 0.1,-0.3 1,0.2 2,1.1 1,0.9 2.5,1.3 3.7,1 1.1,-0.3 1.6,-0.3 1.2,0.1 -0.4,0.5 2,1.8 5.5,3 3.5,1.3 6.4,2.3 6.6,2.3 0.1,0 0.2,-4.8 0.2,-10.7 0,-8.3 -0.5,-11.7 -1.9,-14.8 -1,-2.2 -4.1,-7.6 -7,-12 -2.8,-4.4 -5.2,-8.8 -5.1,-9.7 0,-1 1.1,-2.9 2.5,-4.3 1.3,-1.4 3,-2.5 3.7,-2.5 0.7,-0.1 2.4,0.8 3.8,1.8 1.4,1 4.9,5.7 7.9,10.3 3,4.6 6.3,10.7 7.4,13.4 1.6,4.2 1.9,7.4 1.7,19.5 l -0.1,14.5 c 5.1,2.3 13.7,9.6 22.4,17.7 8.6,8.2 15.9,14.8 16.2,14.8 0.3,0 0.5,-30.1 0.5,-67 v -67 c -5,-3.8 -9.9,-6.1 -14,-7.6 -5.3,-1.8 -10.1,-2.7 -16.5,-3 -5.6,-0.2 -11.4,0.2 -15.5,1.1 z" />
  </g>
  <metadata
     id="metadata1">
    <rdf:RDF>
      <cc:Work
         rdf:about="">
        <dc:title>ChatGPT Image 24 jun 2025, 10_49_27</dc:title>
      </cc:Work>
    </rdf:RDF>
  </metadata>
</svg>
